<?xml version="1.0" standalone="no"?><!DOCTYPE svg PUBLIC "-//W3C//DTD SVG 1.1//EN" "http://www.w3.org/Graphics/SVG/1.1/DTD/svg11.dtd">
<svg t="1701679198354" class="icon" viewBox="0 0 1118 1024" version="1.1" xmlns="http://www.w3.org/2000/svg" p-id="7526"
     xmlns:xlink="http://www.w3.org/1999/xlink" width="139.75" height="128">
    <path d="M262.896804 515.623744C262.896804 689.914155 404.456621 831.123288 578.980822 831.123288c174.524201 0 316.084018-141.326027 316.084018-315.499544S753.505023 200.124201 578.980822 200.124201c-174.641096 0-316.084018 141.209132-316.084018 315.499543z m0 0"
          fill="#F9D706" p-id="7527"></path>
    <path d="M366.699543 282.885845c90.944292-82.644749 221.749772-104.971689 335.021005-57.161644C814.991781 273.534247 890.155251 382.83105 894.246575 505.687671s-63.473973 236.946119-173.238356 292.354338c116.778082-106.140639 137.234703-282.30137 47.810046-412.288584-89.424658-129.987215-261.260274-173.939726-402.118722-102.86758z m0 0"
          fill="#FEBD34" p-id="7528"></path>
    <path d="M407.612785 251.441096c98.893151-64.409132 225.490411-68.266667 328.124201-9.936073 102.63379 58.330594 164.120548 169.030137 159.327854 287.094064C890.272146 646.546119 820.13516 751.985388 713.059361 801.899543c138.754338-90.476712 183.992694-272.715982 103.56895-417.548858-80.306849-144.832877-258.922374-202.812785-409.015526-132.909589z m0 0"
          fill="#F78F22" p-id="7529"></path>
    <path d="M430.056621 476.347032c0 8.416438 4.442009 16.248402 11.806393 20.456621 7.247489 4.208219 16.248402 4.208219 23.612785 0 7.247489-4.208219 11.806393-12.040183 11.806393-20.456621 0-8.416438-4.442009-16.248402-11.806393-20.456621-7.247489-4.208219-16.248402-4.208219-23.612785 0-7.247489 4.208219-11.806393 12.040183-11.806393 20.456621z m0 0M623.985388 476.347032c0 8.416438 4.442009 16.248402 11.806393 20.456621 7.247489 4.208219 16.248402 4.208219 23.612785 0 7.247489-4.208219 11.806393-12.040183 11.806393-20.456621 0-8.416438-4.442009-16.248402-11.806393-20.456621-7.247489-4.208219-16.248402-4.208219-23.612785 0-7.247489 4.208219-11.806393 12.040183-11.806393 20.456621z m0 0"
          fill="" p-id="7530"></path>
    <path d="M497.738813 569.629224h120.518721c0 33.315068-27.00274 60.317808-60.317808 60.317808-33.198174 0-60.200913-27.00274-60.200913-60.317808z m0 0"
          fill="#F48373" p-id="7531"></path>
    <path d="M557.939726 637.778995c-37.873973 0-69.084932-29.808219-70.721461-67.565296-0.116895-2.922374 0.93516-5.727854 2.922374-7.715069 1.987215-2.10411 4.675799-3.273059 7.598174-3.273059h120.518721c2.922374 0 5.610959 1.16895 7.598174 3.273059 1.987215 2.10411 3.039269 4.909589 2.922374 7.715069-1.753425 37.757078-32.964384 67.565297-70.838356 67.565296z m-48.160731-57.629223c5.610959 21.976256 25.483105 37.406393 48.277626 37.406392 22.677626 0 42.549772-15.430137 48.160731-37.406392h-96.438357z m0 0"
          fill="" p-id="7532"></path>
    <path d="M682.199087 574.305023c0 9.702283 5.143379 18.703196 13.676712 23.612785 8.416438 4.909589 18.820091 4.909589 27.23653 0 8.416438-4.909589 13.676712-13.910502 13.676712-23.612785 0-9.702283-5.143379-18.703196-13.676712-23.612786-8.416438-4.909589-18.820091-4.909589-27.23653 0-8.416438 4.909589-13.676712 13.910502-13.676712 23.612786z m0 0"
          fill="#F79121" p-id="7533"></path>
    <path d="M533.859361 865.724201c-185.979909 0-336.774429-150.560731-337.008219-336.540639-0.116895-48.745205 10.403653-96.789041 30.977169-140.975343 4.909589-10.520548 17.417352-15.196347 28.054794-10.169863 10.520548 4.909589 15.196347 17.417352 10.169863 28.054795-18.001826 38.575342-27.23653 80.657534-27.23653 123.207306 0.23379 120.284932 73.526941 228.412785 185.161644 273.300456 111.634703 44.770776 239.400913 17.417352 322.747032-69.435616 8.065753-7.831963 20.924201-7.948858 28.989954-0.116895 8.182648 7.715068 8.767123 20.573516 1.40274 28.989954-63.357078 66.513242-151.378995 104.03653-243.258447 103.685845zM799.561644 720.073059c-7.715068 0.116895-14.962557-4.091324-18.703197-10.871233-3.740639-6.779909-3.389954-15.079452 0.818265-21.62557 13.442922-20.924201 24.19726-43.484932 32.029224-67.097717 3.623744-10.988128 15.430137-16.949772 26.418265-13.326028 10.988128 3.623744 16.949772 15.430137 13.326027 26.418265-8.767123 26.885845-20.924201 52.60274-36.120548 76.56621-3.740639 6.195434-10.403653 9.936073-17.768036 9.936073z m49.79726-170.315981c-11.572603 0-20.924201-9.351598-20.924201-20.924201-0.584475-162.367123-132.208219-293.757078-294.575342-293.990868l-28.288585 1.519635c-7.481279 0.818265-14.845662-2.454795-19.287671-8.650228-4.442009-6.078539-5.260274-14.144292-2.10411-21.041096s9.702283-11.572603 17.183562-12.273973l32.496804-1.519635c185.979909 0 336.774429 150.560731 337.008219 336.54064 0 5.610959-2.3379 11.105023-6.312329 14.962557-4.091324 3.974429-9.468493 6.078539-15.196347 5.961644v-0.584475zM292.821918 345.775342c-8.182648-0.116895-15.547032-4.909589-18.936986-12.273972-3.389954-7.364384-2.10411-16.131507 3.156164-22.326941 17.884932-21.157991 38.341553-39.978082 60.785388-56.109589 9.468493-6.779909 22.560731-4.675799 29.340639 4.675799 6.779909 9.468493 4.675799 22.560731-4.675799 29.34064-19.755251 14.144292-37.757078 30.743379-53.421004 49.212785-4.091324 4.909589-10.052968 7.598174-16.248402 7.481278z m113.154338-84.281278c-10.052968 0.23379-18.936986-6.779909-20.924201-16.715982s3.273059-19.872146 12.624657-23.612785l28.87306-10.520548c10.988128-3.740639 22.911416 2.10411 26.768949 13.092237 3.740639 10.988128-2.10411 22.911416-13.092237 26.76895l-25.716895 9.468493c-2.805479 0.93516-5.610959 1.519635-8.533333 1.519635z m0 0"
          fill="" p-id="7534"></path>
    <path d="M335.254795 574.305023c0 9.702283 5.143379 18.703196 13.676712 23.612785 8.416438 4.909589 18.820091 4.909589 27.23653 0 8.416438-4.909589 13.676712-13.910502 13.676712-23.612785 0-9.702283-5.143379-18.703196-13.676712-23.612786-8.416438-4.909589-18.820091-4.909589-27.23653 0-8.533333 4.909589-13.676712 13.910502-13.676712 23.612786z m0 0"
          fill="#F79121" p-id="7535"></path>
    <path d="M599.437443 1000.50411c-7.715068 0.116895-14.378082-5.494064-15.780822-13.092238l-8.416438-47.225571c-0.818265-8.182648 4.909589-15.663927 12.975342-16.949771 8.065753-1.40274 15.897717 3.740639 17.884932 11.806392l8.416438 47.225571c0.818265 4.091324-0.116895 8.299543-2.454795 11.806393-2.3379 3.389954-5.961644 5.844749-10.052968 6.546119h-2.571689z m-312.927854-78.085845c-5.610959 0-10.754338-3.039269-13.676712-7.831964-2.805479-4.909589-2.805479-10.871233 0-15.780822L296.913242 856.840183c2.805479-4.909589 7.948858-8.065753 13.676712-8.065754 5.727854 0 10.988128 3.039269 13.793608 7.948859 2.805479 4.909589 2.805479 10.988128-0.116895 15.897717l-24.080366 41.965296c-2.922374 4.792694-8.065753 7.831963-13.676712 7.831964z m602.710502-62.889498c-3.623744 0-7.130594-1.285845-9.936073-3.623744l-36.705023-30.977169c-4.325114-3.623744-6.312329-9.351598-5.377169-14.845662 1.052055-5.610959 4.909589-10.169863 10.169863-12.040183 5.260274-1.87032 11.221918-0.818265 15.547032 2.80548l36.705023 30.977169c5.026484 4.208219 6.896804 11.105023 4.675799 17.417351-2.221005 6.195434-8.065753 10.403653-14.611872 10.403653h-0.46758zM97.256621 661.391781c-7.481279-0.23379-13.793607-5.610959-15.079452-13.092238-1.285845-7.364384 2.805479-14.611872 9.819178-17.300456l45.121461-16.248402c7.831963-2.221005 16.131507 1.87032 19.053881 9.585388s-0.584475 16.248402-8.065753 19.755251l-45.589041 16.248402-5.260274 1.052055zM972.56621 564.953425c-8.650228 0-15.780822-7.013699-15.780822-15.663927s7.013699-15.780822 15.780822-15.780822h48.160731c8.650228 0 15.780822 7.013699 15.780822 15.780822 0 8.650228-7.013699 15.663927-15.780822 15.663927H972.56621zM165.406393 355.828311l-5.260274-1.052055-45.589041-16.248402c-7.013699-3.623744-10.286758-11.806393-7.598174-19.287671 2.688584-7.364384 10.403653-11.689498 18.118722-10.052968l45.589041 16.248401c7.013699 2.688584 11.105023 9.936073 9.819178 17.300457-1.285845 7.364384-7.598174 12.858447-15.079452 13.092238z m729.541552-70.253882c-6.546119 0-12.390868-4.208219-14.611872-10.403653-2.221005-6.195434-0.350685-13.092237 4.675799-17.417351l36.705023-30.977169c6.663014-5.610959 16.599087-4.792694 22.326941 1.870319 5.610959 6.663014 4.792694 16.599087-1.87032 22.326941l-36.705023 30.977169c-2.922374 2.3379-6.663014 3.740639-10.520548 3.623744zM368.219178 149.274886c-5.610959 0-10.871233-3.039269-13.676712-7.831964l-24.080366-41.380822c-2.922374-4.909589-2.922374-10.988128-0.116895-15.897716 2.805479-4.909589 8.065753-7.948858 13.793608-7.948859s10.871233 3.156164 13.676712 8.065754l24.080365 41.380821c2.805479 4.909589 2.805479 10.871233 0 15.780822-2.805479 4.792694-8.065753 7.831963-13.676712 7.831964z m288.263014-27.821005h-2.57169c-4.091324-0.818265-7.715068-3.156164-10.052968-6.546118-2.3379-3.389954-3.273059-7.715068-2.454794-11.806393l8.416438-47.225571c1.987215-7.948858 9.819178-13.092237 17.884932-11.806393 8.065753 1.40274 13.793607 8.767123 12.975342 16.949772l-8.416438 47.225571c-1.285845 7.831963-7.948858 13.326027-15.780822 13.209132z m0 0"
          fill="" p-id="7536"></path>
</svg>